<?xml version="1.0" standalone="no"?>
<!DOCTYPE svg PUBLIC "-//W3C//DTD SVG 20010904//EN"
 "http://www.w3.org/TR/2001/REC-SVG-20010904/DTD/svg10.dtd">
<svg version="1.0" xmlns="http://www.w3.org/2000/svg"
 width="1280.000000pt" height="430.000000pt" viewBox="0 0 1280.000000 430.000000"
 preserveAspectRatio="xMidYMid meet">
<metadata>
Created by potrace 1.15, written by Peter Selinger 2001-2017
</metadata>
<g transform="translate(0.000000,430.000000) scale(0.100000,-0.100000)"
fill="#000000" stroke="none">
<path d="M2194 4285 c-95 -17 -134 -30 -229 -78 -193 -96 -325 -309 -325 -527
0 -174 100 -375 225 -455 25 -15 44 -29 42 -31 -1 -2 -42 3 -89 11 -430 69
-907 22 -1215 -120 -382 -177 -637 -582 -593 -942 45 -364 323 -609 783 -689
71 -13 130 -15 257 -11 179 6 272 23 420 76 46 16 85 29 86 28 16 -30 87 -111
132 -151 231 -206 515 -310 803 -292 352 21 651 133 926 345 205 158 531 487
808 816 568 672 912 984 1193 1079 156 53 287 56 430 11 180 -58 301 -156 374
-302 36 -72 41 -92 45 -170 7 -112 -8 -182 -58 -283 -51 -101 -138 -184 -253
-241 -103 -50 -233 -83 -295 -75 -245 32 -332 28 -478 -20 -157 -53 -364 -175
-535 -316 -42 -35 -104 -85 -138 -113 -63 -51 -650 -642 -650 -655 0 -46 549
-605 750 -764 223 -177 349 -257 502 -320 135 -55 220 -70 372 -63 151 7 218
22 336 79 200 96 340 315 340 533 0 196 -120 406 -279 489 l-64 34 61 31 c82
41 122 79 182 168 69 103 94 189 95 323 0 124 -26 217 -85 309 -49 76 -141
165 -213 206 l-59 32 68 8 c86 9 180 38 265 81 114 57 217 193 253 334 13 52
14 53 20 25 26 -119 63 -197 135 -283 80 -96 235 -169 384 -179 42 -3 77 -9
77 -13 0 -3 -23 -17 -52 -31 -70 -32 -194 -156 -235 -234 -52 -99 -67 -166
-67 -290 1 -125 21 -199 79 -296 45 -73 137 -160 203 -190 28 -13 52 -26 52
-29 0 -3 -24 -16 -52 -29 -66 -30 -158 -117 -203 -190 -58 -97 -78 -171 -79
-296 -1 -179 47 -298 170 -422 119 -119 284 -187 486 -200 362 -23 719 187
1280 753 218 220 358 374 358 395 0 9 -327 348 -484 502 -67 65 -188 173 -271
240 -411 330 -669 428 -988 372 -121 -21 -217 -1 -370 78 -187 96 -297 272
-297 477 0 177 96 340 252 431 276 162 542 143 843 -60 220 -147 534 -460 910
-906 266 -316 634 -694 815 -838 277 -222 570 -338 921 -366 327 -27 624 80
857 307 43 42 88 90 99 105 l19 29 88 -31 c258 -91 564 -105 804 -35 329 95
525 253 613 494 72 199 55 409 -52 624 -218 439 -696 657 -1389 632 -102 -3
-239 -14 -304 -24 -101 -15 -115 -16 -95 -3 13 8 51 42 85 76 170 170 211 440
102 663 -23 46 -58 93 -114 149 -66 68 -95 90 -165 122 -121 57 -186 72 -335
78 -153 6 -232 -7 -372 -63 -227 -92 -512 -304 -817 -609 -261 -260 -435 -440
-435 -450 0 -20 135 -170 349 -388 572 -580 957 -800 1323 -757 51 6 105 13
119 16 24 5 27 3 33 -37 11 -70 62 -152 144 -232 83 -79 171 -136 296 -188
l79 -33 -72 -68 c-311 -291 -740 -361 -1176 -191 -348 136 -617 346 -1150 899
-642 665 -804 818 -1055 995 -227 161 -437 239 -642 239 -338 -1 -612 -182
-689 -455 -16 -57 -17 -58 -24 -30 -33 144 -88 239 -191 333 -111 102 -271
164 -464 178 -245 18 -529 -98 -820 -336 -41 -34 -100 -79 -130 -102 -30 -22
-185 -174 -345 -337 -825 -841 -1011 -1017 -1252 -1179 -223 -150 -506 -253
-734 -268 -242 -16 -502 58 -689 196 -66 49 -168 147 -159 153 2 2 56 28 119
59 63 31 143 76 177 101 109 81 198 207 210 297 4 31 9 39 22 36 9 -3 45 -10
81 -16 390 -61 763 143 1361 746 225 227 359 375 359 396 0 4 -136 146 -302
314 -522 529 -821 739 -1136 800 -89 17 -212 17 -308 -1z m318 -39 c283 -54
570 -276 1043 -806 66 -74 149 -168 183 -207 l64 -73 -94 -107 c-299 -345
-595 -645 -755 -764 -293 -218 -549 -279 -788 -187 -32 12 -57 28 -60 39 -4
10 -24 42 -47 70 -41 52 -119 99 -166 99 -16 0 -31 14 -53 48 -128 202 -65
508 136 659 116 87 142 96 300 99 172 3 324 28 303 50 -16 15 -188 37 -308 38
-123 2 -139 5 -185 28 -161 83 -261 207 -300 370 -64 273 106 530 415 627 111
34 196 39 312 17z m8043 -31 c194 -45 354 -167 427 -322 104 -222 22 -498
-191 -642 -103 -70 -114 -73 -231 -72 -96 2 -310 -22 -333 -36 -37 -23 141
-53 312 -53 119 0 125 -1 181 -31 139 -74 236 -182 281 -316 33 -96 33 -242
-1 -328 -37 -95 -66 -135 -98 -135 -64 -1 -156 -70 -197 -150 -29 -56 -156
-95 -305 -93 -111 2 -231 33 -338 87 -229 117 -523 388 -946 875 l-116 133 43
51 c23 28 97 113 165 189 564 635 873 856 1197 857 50 1 117 -6 150 -14z
m-8627 -1041 c28 -4 52 -10 52 -13 0 -3 -27 -19 -61 -35 -150 -72 -263 -255
-276 -449 -7 -107 15 -209 66 -309 l39 -78 -49 -36 c-101 -74 -176 -187 -200
-302 -16 -81 -7 -234 20 -302 11 -30 17 -57 13 -61 -13 -14 -181 -58 -281 -74
-75 -13 -142 -16 -263 -13 -151 4 -170 6 -255 36 -163 56 -249 105 -339 196
-135 135 -188 265 -188 466 0 131 16 206 68 317 180 380 587 611 1171 663 103
9 390 5 483 -6z m597 -14 c4 -6 -32 -10 -99 -10 -64 0 -106 4 -106 10 0 6 40
10 99 10 56 0 103 -4 106 -10z m8985 -25 c487 -76 840 -294 1003 -620 62 -124
82 -205 81 -335 0 -134 -17 -209 -71 -320 -41 -83 -154 -206 -233 -253 -69
-40 -238 -105 -319 -122 -84 -17 -264 -20 -378 -4 -76 10 -298 64 -320 77 -8
5 -5 25 9 67 26 75 35 226 18 304 -25 116 -110 236 -223 317 l-29 20 31 50
c69 107 96 277 67 414 -34 161 -139 307 -265 370 -34 17 -61 34 -58 36 27 27
515 26 687 -1z m-1036 4 c19 -1 18 -2 -4 -9 -33 -10 -138 -12 -181 -3 l-34 8
40 6 c22 4 67 5 99 3 32 -2 68 -4 80 -5z m-4919 -890 c28 -6 97 -34 155 -61
84 -41 117 -63 166 -113 122 -125 173 -284 142 -442 -29 -146 -98 -257 -210
-336 -115 -81 -124 -84 -303 -90 -173 -5 -288 -22 -282 -41 6 -19 125 -37 285
-42 84 -2 164 -9 179 -15 47 -18 159 -97 200 -142 226 -245 171 -622 -113
-788 -141 -82 -229 -108 -365 -109 -336 -1 -670 246 -1282 949 l-126 144 19
26 c10 14 60 73 111 131 691 789 1032 1012 1424 929z m-3587 -8 c41 -21 89
-67 79 -77 -7 -7 -84 45 -111 75 -24 26 -16 27 32 2z m-127 -45 c54 -48 134
-96 213 -126 27 -10 28 -12 21 -57 -14 -92 -67 -171 -165 -245 -63 -48 -290
-168 -318 -168 -7 0 -23 21 -35 48 -18 39 -22 65 -22 162 0 136 18 203 80 294
38 57 133 146 156 146 6 0 38 -24 70 -54z m5759 8 c47 -14 110 -39 140 -54
155 -79 378 -264 617 -513 133 -139 438 -485 438 -497 0 -21 -338 -394 -535
-590 -284 -283 -449 -403 -646 -470 -90 -30 -110 -33 -219 -34 -106 -1 -129 2
-200 27 -295 101 -456 328 -417 584 28 177 129 315 297 405 59 31 63 32 200
34 77 1 175 9 218 17 118 22 118 32 0 54 -43 8 -141 16 -218 17 -137 3 -143 4
-201 35 -166 88 -266 224 -295 400 -43 258 129 498 421 590 93 29 104 30 215
26 73 -3 123 -11 185 -31z m3255 -3 c-36 -34 -105 -76 -105 -64 0 11 58 66 85
81 39 22 50 13 20 -17z m211 1 c132 -97 204 -242 204 -413 0 -75 -29 -201 -49
-214 -5 -3 -46 11 -90 30 -242 103 -387 241 -407 385 l-6 45 38 14 c69 24 158
79 209 129 28 27 53 49 56 50 3 1 24 -11 45 -26z m-5596 -1031 c39 -11 -90
-22 -159 -14 -45 5 -51 8 -31 14 32 9 158 9 190 0z m2060 -31 c0 -6 -42 -10
-105 -10 -63 0 -105 4 -105 10 0 6 42 10 105 10 63 0 105 -4 105 -10z"/>
</g>
</svg>
