<?xml version="1.0" standalone="no"?>
<!DOCTYPE svg PUBLIC "-//W3C//DTD SVG 20010904//EN"
 "http://www.w3.org/TR/2001/REC-SVG-20010904/DTD/svg10.dtd">
<svg version="1.0" xmlns="http://www.w3.org/2000/svg"
 width="989.000000pt" height="1280.000000pt" viewBox="0 0 989.000000 1280.000000"
 preserveAspectRatio="xMidYMid meet">
<metadata>
Created by potrace 1.15, written by Peter Selinger 2001-2017
</metadata>
<g transform="translate(0.000000,1280.000000) scale(0.100000,-0.100000)"
fill="#000000" stroke="none">
<path d="M4892 12633 c-23 -8 -47 -23 -52 -33 -12 -22 -71 -60 -94 -60 -11 0
-16 9 -16 31 0 27 -3 31 -21 26 -15 -4 -23 0 -26 14 -3 10 -9 19 -14 19 -12 0
-11 -24 1 -36 15 -15 1 -44 -22 -44 -42 0 -97 -47 -98 -82 0 -28 -34 -38 -160
-50 l-119 -11 -46 42 c-52 48 -99 71 -145 71 -44 0 -240 -54 -350 -97 -81 -31
-104 -45 -156 -97 -110 -110 -159 -273 -134 -443 12 -79 98 -338 188 -563 51
-129 109 -298 157 -455 15 -49 44 -129 65 -176 22 -48 54 -131 73 -185 59
-168 107 -287 141 -344 18 -30 50 -86 71 -125 21 -38 52 -86 70 -105 37 -40
151 -224 221 -355 56 -106 108 -185 179 -275 29 -36 102 -135 163 -220 62 -85
146 -198 187 -250 90 -114 134 -190 176 -307 29 -82 31 -95 26 -188 -5 -110
-14 -136 -97 -311 -44 -92 -65 -121 -153 -215 -197 -212 -279 -340 -484 -752
-93 -188 -166 -317 -243 -433 -75 -110 -261 -398 -350 -539 -49 -79 -218 -363
-508 -855 -47 -80 -142 -233 -212 -340 -207 -320 -504 -827 -905 -1544 l-128
-229 6 -71 c5 -59 14 -87 54 -164 26 -50 53 -92 59 -92 15 0 24 -23 24 -62 0
-18 10 -42 25 -60 20 -24 25 -40 25 -86 0 -103 34 -177 100 -218 19 -12 52
-37 72 -56 34 -30 38 -38 38 -83 0 -94 58 -272 80 -249 4 5 23 43 40 85 30 73
33 76 58 70 14 -4 43 -28 65 -54 33 -39 43 -60 58 -134 10 -48 19 -100 19
-115 0 -21 14 -39 68 -81 37 -30 83 -62 102 -72 19 -10 50 -31 68 -46 18 -16
50 -38 71 -48 21 -11 45 -31 54 -44 18 -28 123 -88 213 -122 35 -13 83 -35
106 -49 25 -14 81 -31 133 -41 50 -9 124 -24 165 -33 91 -21 118 -18 130 12 5
13 19 26 32 29 36 7 121 -6 146 -25 23 -16 23 -18 12 -74 -15 -72 -7 -136 30
-233 39 -106 45 -125 85 -309 55 -250 121 -422 190 -496 54 -58 208 -106 340
-106 114 0 298 47 367 94 30 20 33 26 32 71 -1 28 -4 60 -8 71 -8 22 -7 22 51
8 178 -43 493 -16 505 44 8 35 -11 94 -37 121 -27 29 -43 37 -170 85 -38 15
-108 46 -155 69 -69 34 -89 49 -107 82 -43 76 -61 142 -78 281 -9 76 -27 188
-40 249 -27 125 -28 122 51 166 28 16 67 47 87 69 19 22 41 40 47 40 6 0 25
14 42 30 23 23 33 28 43 20 9 -8 15 -8 20 0 3 6 11 7 17 4 13 -8 48 32 104
118 42 64 88 108 101 94 10 -10 51 53 67 103 8 25 17 66 21 91 3 25 29 169 56
322 27 152 74 435 104 630 66 423 100 616 165 928 60 286 86 420 145 749 54
299 63 344 160 736 148 603 167 683 195 831 69 361 92 653 96 1208 4 505 6
520 89 797 77 255 79 271 72 487 -6 213 2 320 38 503 43 220 29 369 -47 512
-37 68 -82 110 -273 251 -77 57 -169 130 -204 163 l-64 59 27 70 c15 38 41
103 58 144 29 73 70 133 125 183 16 14 59 53 97 86 38 34 83 79 100 100 17 21
65 78 107 127 110 128 168 207 228 308 29 49 74 121 100 160 64 94 99 165 127
256 83 264 -49 399 -625 639 -76 32 -130 49 -142 46 -11 -4 -35 -22 -54 -42
l-35 -36 -64 17 c-125 31 -446 137 -548 180 -57 24 -122 49 -145 55 -23 7 -73
24 -110 40 -37 16 -135 51 -218 79 -173 58 -294 73 -373 45z m-252 -173 c0 -5
-12 -10 -27 -9 l-28 1 25 8 c14 4 26 8 28 9 1 1 2 -3 2 -9z m1146 -470 c17 -7
40 -29 56 -56 31 -50 47 -52 40 -4 -2 16 -1 30 4 30 8 0 255 -129 306 -160 19
-11 37 -33 44 -52 8 -26 32 -48 109 -100 54 -37 103 -69 109 -71 16 -5 -14
-45 -112 -149 -106 -112 -154 -172 -210 -258 -22 -36 -60 -84 -84 -107 -55
-53 -236 -175 -249 -167 -5 3 5 23 22 45 51 65 99 185 99 250 0 33 -6 63 -15
75 -22 29 -18 43 18 52 44 11 59 46 48 106 -9 50 -41 92 -80 107 -19 8 -22 14
-16 36 11 45 11 48 -3 45 -8 -1 -11 2 -7 7 3 6 -3 16 -14 23 -16 10 -18 15 -8
27 9 12 9 13 0 7 -19 -11 -16 14 5 38 15 18 15 19 0 8 -15 -12 -17 -9 -17 30
-1 24 -2 57 -3 73 -1 17 2 42 6 57 7 23 3 32 -20 55 -16 16 -40 36 -54 45 -29
19 -17 23 26 8z m-86 -32 c0 -16 -3 -19 -11 -11 -6 6 -8 16 -5 22 11 17 16 13
16 -11z m-1469 -149 c-17 -24 -31 -54 -32 -68 0 -22 -4 -19 -21 19 -41 91 -41
84 15 117 l52 29 9 -27 c7 -23 3 -35 -23 -70z m1675 -386 c-1 -7 -5 -13 -9
-13 -4 0 -10 0 -14 0 -5 0 -9 17 -10 38 l-3 37 19 -24 c10 -14 18 -31 17 -38z
m-44 -265 c-10 -22 -11 -21 -11 12 -1 26 2 31 11 22 8 -8 8 -17 0 -34z m-202
-101 c0 -23 -17 -47 -32 -47 -11 0 -10 13 2 44 12 32 30 34 30 3z m-58 -32
c-2 -25 -8 -45 -13 -45 -5 0 -9 20 -9 45 0 29 4 45 13 45 8 0 11 -14 9 -45z
m68 -15 c0 -5 -5 -10 -11 -10 -5 0 -7 5 -4 10 3 6 8 10 11 10 2 0 4 -4 4 -10z
m-54 -57 c-11 -11 -19 6 -11 24 8 17 8 17 12 0 3 -10 2 -21 -1 -24z m-23 -104
c14 -6 30 -22 36 -35 10 -22 9 -23 -17 -13 -34 13 -63 39 -56 50 7 11 8 11 37
-2z m-19 -70 c26 -17 46 -33 46 -36 0 -2 -24 -28 -53 -56 -30 -29 -65 -67 -79
-86 l-26 -34 -16 53 c-25 84 -21 100 29 140 25 19 45 38 45 42 0 12 6 10 54
-23z m-840 3 c6 -11 -14 -92 -24 -92 -17 0 -31 46 -21 73 10 26 34 36 45 19z
m30 -9860 c28 -55 71 -191 63 -199 -9 -9 -54 89 -71 155 -9 34 -19 68 -22 77
-13 34 7 12 30 -33z"/>
</g>
</svg>
